<?xml version="1.0" encoding="UTF-8"?>
<svg version="1.1" xmlns="http://www.w3.org/2000/svg" width="122" height="40">
<path d="M0 0 C40.26 0 80.52 0 122 0 C122 13.2 122 26.4 122 40 C81.74 40 41.48 40 0 40 C0 26.8 0 13.6 0 0 Z " fill="#121721" transform="translate(0,0)"/>
<path d="M0 0 C0.99386719 0.02707031 1.98773438 0.05414062 3.01171875 0.08203125 C4.15060547 0.13423828 4.15060547 0.13423828 5.3125 0.1875 C5.6425 2.8275 5.9725 5.4675 6.3125 8.1875 C8.9525 8.5175 11.5925 8.8475 14.3125 9.1875 C14.4206866 11.77195773 14.49987237 14.35187352 14.5625 16.9375 C14.61277344 18.03191406 14.61277344 18.03191406 14.6640625 19.1484375 C14.72559675 22.53282128 14.57200947 24.77071207 12.765625 27.671875 C9.35561649 29.77869554 6.79760089 29.71887875 2.8125 29.6875 C0.84796875 29.70296875 0.84796875 29.70296875 -1.15625 29.71875 C-4.6875 29.1875 -4.6875 29.1875 -7.12890625 27.84765625 C-9.67843378 23.49620701 -9.22352028 19.06690439 -9.125 14.125 C-9.13563477 12.61583008 -9.13563477 12.61583008 -9.14648438 11.07617188 C-9.08250401 3.70858725 -9.08250401 3.70858725 -7.32910156 1.39550781 C-4.90229584 -0.39030937 -2.96435261 -0.10462421 0 0 Z " fill="#A6B0B4" transform="translate(17.6875,5.8125)"/>
<path d="M0 0 C0.99773438 0.02320313 1.99546875 0.04640625 3.0234375 0.0703125 C4.52777344 0.09738281 4.52777344 0.09738281 6.0625 0.125 C6.83335938 0.14820313 7.60421875 0.17140625 8.3984375 0.1953125 C8.3984375 3.1653125 8.3984375 6.1353125 8.3984375 9.1953125 C6.4184375 9.1953125 4.4384375 9.1953125 2.3984375 9.1953125 C2.3984375 7.5453125 2.3984375 5.8953125 2.3984375 4.1953125 C1.4084375 4.1953125 0.4184375 4.1953125 -0.6015625 4.1953125 C-0.2715625 6.1753125 0.0584375 8.1553125 0.3984375 10.1953125 C-0.2615625 10.1953125 -0.9215625 10.1953125 -1.6015625 10.1953125 C-1.2715625 11.5153125 -0.9415625 12.8353125 -0.6015625 14.1953125 C6.3284375 14.6903125 6.3284375 14.6903125 13.3984375 15.1953125 C13.3984375 15.5253125 13.3984375 15.8553125 13.3984375 16.1953125 C8.4484375 16.1953125 3.4984375 16.1953125 -1.6015625 16.1953125 C-1.9315625 17.5153125 -2.2615625 18.8353125 -2.6015625 20.1953125 C-3.2615625 20.1953125 -3.9215625 20.1953125 -4.6015625 20.1953125 C-4.65535476 17.23673841 -4.69513343 14.27913529 -4.7265625 11.3203125 C-4.74332031 10.47855469 -4.76007812 9.63679687 -4.77734375 8.76953125 C-4.78378906 7.96386719 -4.79023438 7.15820312 -4.796875 6.328125 C-4.81258545 5.21268311 -4.81258545 5.21268311 -4.82861328 4.07470703 C-4.43736154 0.83615231 -3.09923194 0.23267507 0 0 Z " fill="#EAEFF1" transform="translate(14.6015625,5.8046875)"/>
<path d="M0 0 C1.27875 -0.061875 2.5575 -0.12375 3.875 -0.1875 C4.95394531 -0.23970703 4.95394531 -0.23970703 6.0546875 -0.29296875 C6.69664063 -0.19628906 7.33859375 -0.09960938 8 0 C10 3 10 3 9.8125 6.5625 C9 10 9 10 6 12 C4.02 12 2.04 12 0 12 C0 8.04 0 4.08 0 0 Z " fill="#CECFD1" transform="translate(40,15)"/>
<path d="M0 0 C1.32 0 2.64 0 4 0 C4.66 1.65 5.32 3.3 6 5 C7.93798263 2.22739701 7.93798263 2.22739701 9 0 C9.99 0 10.98 0 12 0 C12 3.63 12 7.26 12 11 C11.34 11 10.68 11 10 11 C9.67 10.01 9.34 9.02 9 8 C8.67 8.99 8.34 9.98 8 11 C7.01 11 6.02 11 5 11 C4.34 9.35 3.68 7.7 3 6 C2.67 7.65 2.34 9.3 2 11 C1.34 11 0.68 11 0 11 C0 7.37 0 3.74 0 0 Z " fill="#DFDFE0" transform="translate(82,15)"/>
<path d="M0 0 C4.55555556 0.55555556 4.55555556 0.55555556 6 2 C6.1875 4.9375 6.1875 4.9375 6 8 C5.34 8.66 4.68 9.32 4 10 C-0.55555556 9.44444444 -0.55555556 9.44444444 -2 8 C-2.1875 5.0625 -2.1875 5.0625 -2 2 C-1.34 1.34 -0.68 0.68 0 0 Z " fill="#D6D7D9" transform="translate(54,17)"/>
<path d="M0 0 C0.33 1.65 0.66 3.3 1 5 C-0.65 5 -2.3 5 -4 5 C-4 5.66 -4 6.32 -4 7 C-2.35 6.67 -0.7 6.34 1 6 C1 6.66 1 7.32 1 8 C-0.98 8.33 -2.96 8.66 -5 9 C-7 6 -7 6 -6.75 2.875 C-6.37875 1.451875 -6.37875 1.451875 -6 0 C-3.50907189 -1.24546405 -2.58919267 -0.7767578 0 0 Z " fill="#B1B2B5" transform="translate(120,18)"/>
<path d="M0 0 C0.99 0 1.98 0 3 0 C3 2.31 3 4.62 3 7 C3.66 6.67 4.32 6.34 5 6 C5.65772428 2.97065509 5.65772428 2.97065509 6 0 C6.66 0 7.32 0 8 0 C8 2.97 8 5.94 8 9 C5.125 9.125 5.125 9.125 2 9 C0 7 0 7 -0.125 3.375 C-0.08375 2.26125 -0.0425 1.1475 0 0 Z " fill="#D2D3D5" transform="translate(71,18)"/>
<path d="M0 0 C0.33 2.64 0.66 5.28 1 8 C-1.31 8.33 -3.62 8.66 -6 9 C-6.33 7.68 -6.66 6.36 -7 5 C-6.34 5 -5.68 5 -5 5 C-5 5.66 -5 6.32 -5 7 C-4.01 6.01 -3.02 5.02 -2 4 C-4.475 3.01 -4.475 3.01 -7 2 C-7 1.34 -7 0.68 -7 0 C-4.3333581 -1.33332095 -2.83319697 -0.67102033 0 0 Z " fill="#D5D6D7" transform="translate(104,18)"/>
<path d="M0 0 C0.598125 0.226875 1.19625 0.45375 1.8125 0.6875 C1.8125 1.3475 1.8125 2.0075 1.8125 2.6875 C0.4925 2.6875 -0.8275 2.6875 -2.1875 2.6875 C-2.1875 4.3375 -2.1875 5.9875 -2.1875 7.6875 C-0.5375 7.3575 1.1125 7.0275 2.8125 6.6875 C1.8225 8.1725 1.8225 8.1725 0.8125 9.6875 C-0.8375 9.3575 -2.4875 9.0275 -4.1875 8.6875 C-4.875 5.875 -4.875 5.875 -5.1875 2.6875 C-3.62441875 0.13720955 -3.00012909 -0.42858987 0 0 Z " fill="#E6E7E8" transform="translate(67.1875,17.3125)"/>
<path d="M0 0 C3.79354018 1.49031936 5.6478536 3.72379609 8 7 C8 7.33 8 7.66 8 8 C5.66705225 8.04241723 3.33297433 8.04092937 1 8 C0 7 0 7 -0.0625 3.4375 C-0.041875 2.303125 -0.02125 1.16875 0 0 Z " fill="#57E1EA" transform="translate(24,6)"/>
<path d="M0 0 C2.475 0.495 2.475 0.495 5 1 C5 2.98 5 4.96 5 7 C3.35 7.33 1.7 7.66 0 8 C0 5.36 0 2.72 0 0 Z " fill="#21242E" transform="translate(42,17)"/>
<path d="M0 0 C2.64 0 5.28 0 8 0 C7.34 0.66 6.68 1.32 6 2 C4.68 2 3.36 2 2 2 C2 4.64 2 7.28 2 10 C2.99 10.33 3.98 10.66 5 11 C3.35 11 1.7 11 0 11 C0 7.37 0 3.74 0 0 Z " fill="#F4F4F5" transform="translate(40,15)"/>
<path d="M0 0 C0.66 0 1.32 0 2 0 C2 0.66 2 1.32 2 2 C2.99 2.33 3.98 2.66 5 3 C4.01 3 3.02 3 2 3 C2.34444881 5.47266765 2.34444881 5.47266765 3 8 C3.66 8.33 4.32 8.66 5 9 C5 9.66 5 10.32 5 11 C3.35 10.67 1.7 10.34 0 10 C-1.125 2.25 -1.125 2.25 0 0 Z " fill="#E7E8E9" transform="translate(107,16)"/>
<path d="M0 0 C2 2 2 2 2 6 C0.02 6.33 -1.96 6.66 -4 7 C-4 5.35 -4 3.7 -4 2 C-2.68 2 -1.36 2 0 2 C0 1.34 0 0.68 0 0 Z " fill="#2E313A" transform="translate(69,18)"/>
<path d="M0 0 C0.66 0 1.32 0 2 0 C2 1.98 2 3.96 2 6 C3.65 6 5.3 6 7 6 C7 6.66 7 7.32 7 8 C5.02 8.33 3.04 8.66 1 9 C-1 6 -1 6 -0.625 2.8125 C-0.41875 1.884375 -0.2125 0.95625 0 0 Z " fill="#DDDEDF" transform="translate(114,18)"/>
<path d="M0 0 C1.32 0 2.64 0 4 0 C4 1.98 4 3.96 4 6 C2.68 5.67 1.36 5.34 0 5 C0 3.35 0 1.7 0 0 Z " fill="#2E313A" transform="translate(109,19)"/>
<path d="M0 0 C1.98 0.495 1.98 0.495 4 1 C4 2.32 4 3.64 4 5 C2.35 4.67 0.7 4.34 -1 4 C-0.67 2.68 -0.34 1.36 0 0 Z " fill="#606A73" transform="translate(14,9)"/>
<path d="M0 0 C0.99 0.33 1.98 0.66 3 1 C2.67 2.65 2.34 4.3 2 6 C1.01 5.67 0.02 5.34 -1 5 C-0.67 3.35 -0.34 1.7 0 0 Z " fill="#292D36" transform="translate(55,19)"/>
<path d="M0 0 C2.475 0.495 2.475 0.495 5 1 C5 2.98 5 4.96 5 7 C4.01 7 3.02 7 2 7 C2.04125 6.21625 2.0825 5.4325 2.125 4.625 C2.28728734 1.83883881 2.28728734 1.83883881 0 0 Z " fill="#F2F2F3" transform="translate(55,18)"/>
<path d="M0 0 C0 0.66 0 1.32 0 2 C-1.32 2 -2.64 2 -4 2 C-4.33 3.32 -4.66 4.64 -5 6 C-5.33 4.02 -5.66 2.04 -6 0 C-3.50907189 -1.24546405 -2.58919267 -0.7767578 0 0 Z " fill="#BCBDC0" transform="translate(69,18)"/>
<path d="M0 0 C0.99 0 1.98 0 3 0 C3 3.63 3 7.26 3 11 C2.67 11 2.34 11 2 11 C2 8.69 2 6.38 2 4 C1.34 4 0.68 4 0 4 C0 2.68 0 1.36 0 0 Z " fill="#FBFBFC" transform="translate(91,15)"/>
</svg>
